<svg width="198" height="121" viewBox="0 0 198 121" fill="none" xmlns="http://www.w3.org/2000/svg">
<path d="M196.407 60.0961C180.768 61.9845 165.075 63.5272 149.382 64.6709C142.494 65.1763 133.876 66.8785 129.142 60.5217C125.232 55.2553 123.264 48.7921 119.38 43.4725C115.258 37.8338 110.098 33.0728 106.241 27.2213C102.491 21.556 99.6182 15.3588 97.7031 8.84235C96.5062 4.82609 94.9104 -0.227511 89.6706 0.490627C84.6437 1.18217 82.6754 7.0869 82.702 11.5021C82.7286 17.5398 85.149 23.7902 87.7024 29.163C88.8727 31.6365 90.3356 33.9505 91.6655 36.3177C92.357 37.5412 93.5539 39.1903 92.9687 40.6C92.4634 41.8235 91.0537 42.0097 89.8036 42.3022C76.4249 45.2812 62.8867 43.8981 49.5346 41.5309C42.0873 40.201 34.7198 39.1371 27.166 38.5519C22.4582 38.1796 17.7504 37.7009 13.0426 37.5945C9.21249 37.5147 4.61116 36.9827 1.8982 40.2808C-1.47971 44.3768 0.568274 49.324 4.77071 51.5848C9.77108 54.2712 15.9949 54.4574 21.5272 54.9628C28.4692 55.6011 35.7305 55.6277 42.4597 57.5959C48.9761 59.4843 54.4819 63.5538 60.0674 67.2775C61.8494 68.4744 63.5251 65.6018 61.743 64.4049C57.1948 61.3728 52.6998 58.1013 47.6462 55.9202C42.7788 53.8456 37.6987 53.0743 32.4589 52.569C26.4745 51.9838 20.4367 51.6912 14.4789 50.8667C10.9414 50.3879 -0.415832 48.074 4.53134 42.3289C6.92514 39.5627 14.2129 40.8925 17.5908 41.1319C22.7774 41.4777 27.964 41.9033 33.1505 42.3289C39.7999 42.8874 46.4227 44.4035 52.9924 45.5472C65.3337 47.7016 77.7016 47.9676 90.043 45.6536C93.2347 45.0418 96.9584 43.8449 96.6126 39.9351C96.4264 37.7807 95.1763 35.7326 94.0858 33.8973C92.4899 31.1844 90.9473 28.498 89.6972 25.5989C87.4098 20.2527 83.8723 11.5819 87.2768 6.04954C88.5003 4.08131 90.7345 2.77807 92.5963 4.85269C93.4209 5.75701 93.7135 7.14003 94.0592 8.28374C94.937 11.2893 95.8945 14.2417 97.118 17.1408C99.4852 22.8061 102.571 28.1523 106.294 33.0197C110.337 38.286 115.311 42.8076 118.742 48.5261C122.04 54.085 124.141 61.426 129.408 65.5486C134.302 69.3787 141.004 68.6074 146.802 68.1818C163.399 67.0115 179.943 65.4156 196.46 63.4208C198.508 63.1548 198.535 59.8301 196.407 60.0961Z" fill="#EFEFEF"/>
<path d="M56.1577 60.9205C49.1891 61.2928 41.3693 62.8089 39.4808 70.6819C38.7361 73.7672 39.0287 77.2781 41.2363 79.6984C43.5237 82.2252 47.1676 83.0231 50.3859 83.5817C58.711 84.9648 67.6213 85.5234 76.0262 84.6457C77.9678 84.4329 79.9094 84.1668 81.8244 83.7413C83.3937 83.4221 85.2289 83.2094 86.1066 81.7199C87.7557 79.0069 85.5215 75.7088 83.2075 74.2725C79.537 71.9851 74.4835 71.1872 70.3342 70.0967C65.387 68.7934 60.4132 67.6497 55.4395 66.506C53.3649 66.0272 52.4606 69.2455 54.5618 69.7243C62.5677 71.5595 70.6268 73.3682 78.4466 75.8684C79.8562 76.3205 83.1543 77.2249 83.2075 79.1665C83.2607 80.7624 79.1913 80.8421 78.021 81.0283C74.0313 81.6135 69.9619 81.7198 65.9456 81.5869C62.0091 81.4805 58.0727 81.1614 54.1628 80.7358C50.8913 80.3634 46.1835 80.0974 43.7365 77.5707C41.1831 74.9109 42.4332 69.8839 44.7738 67.5167C47.6996 64.591 52.2477 64.4313 56.1044 64.2186C58.2854 64.1388 58.2855 60.8141 56.1577 60.9205Z" fill="#EFEFEF"/>
<path d="M47.1144 80.2301C42.3268 82.5707 40.3585 88.4222 42.9917 93.13C45.9972 98.4495 52.8595 98.5293 58.2322 98.7952C64.988 99.141 71.8237 99.0081 78.4465 97.492C82.4096 96.5877 91.5326 94.6194 90.575 88.8477C90.0963 85.922 87.3567 84.406 84.6969 83.8208C80.4945 82.9165 76.1325 82.4643 71.8769 81.7994C69.7756 81.4802 68.8713 84.6719 70.9991 85.0177C74.2174 85.523 77.4357 86.0018 80.6541 86.5071C82.3297 86.7731 89.5111 87.571 86.7183 90.7361C85.0427 92.6512 81.1062 93.3959 78.739 93.9811C75.6271 94.779 72.4354 95.2312 69.2171 95.444C63.4986 95.8164 57.248 95.9493 51.6093 94.8854C48.7634 94.3534 46.0505 92.997 45.2791 89.9649C44.561 87.0391 46.1834 84.3793 48.79 83.1026C50.705 82.1717 49.0294 79.2992 47.1144 80.2301Z" fill="#EFEFEF"/>
<path d="M58.0724 95.7103C54.0827 96.9338 50.359 100.099 50.891 104.674C51.4495 109.594 56.5031 110.632 60.5991 111.11C65.3069 111.669 70.1743 111.164 74.6693 109.727C78.4462 108.504 83.6594 106.536 85.468 102.679C87.7288 97.8914 82.8083 95.0986 78.8452 94.3007C76.744 93.8751 75.8662 97.0669 77.9674 97.5191C79.3771 97.8116 81.3453 98.1308 82.2762 99.3543C83.4731 100.87 81.6912 102.519 80.5209 103.344C77.143 105.764 72.7809 107.121 68.7115 107.733C64.8016 108.318 60.1204 108.344 56.3701 106.908C54.4817 106.19 53.6838 104.434 54.4019 102.519C55.12 100.578 57.0882 99.5138 58.9501 98.9553C60.9981 98.2903 60.1204 95.072 58.0724 95.7103Z" fill="#EFEFEF"/>
<path d="M73.4723 110.153C84.4572 115.073 96.6922 116.35 108.448 113.743C110.55 113.291 109.645 110.073 107.571 110.525C96.7454 112.919 85.2818 111.802 75.1746 107.28C73.2064 106.402 71.5307 109.275 73.4723 110.153Z" fill="#EFEFEF"/>
<path d="M124.168 111.509C148.451 109.169 172.895 112.068 195.955 120.074C197.976 120.765 198.854 117.573 196.833 116.855C173.533 108.77 148.717 105.791 124.168 108.158C122.066 108.397 122.04 111.722 124.168 111.509Z" fill="#EFEFEF"/>
<path d="M115.869 78.4215C114.407 78.6077 112.917 77.6502 111.72 76.9321C110.55 76.2139 109.433 75.416 108.369 74.5383C106.321 72.8095 104.459 70.8412 102.943 68.6336C99.8843 64.2184 97.9426 59.0584 97.5437 53.6857C97.3841 51.5579 94.0594 51.5579 94.2189 53.6857C94.6977 60.0426 96.9585 66.1601 100.762 71.2668C102.677 73.8202 104.885 76.081 107.438 78.0226C110.124 80.0706 113.21 82.0921 116.747 81.6399C117.652 81.5069 118.104 80.3898 117.918 79.5919C117.652 78.6077 116.747 78.2886 115.869 78.4215Z" fill="#EFEFEF"/>
</svg>
