<svg width="189" height="115" viewBox="0 0 189 115" fill="none" xmlns="http://www.w3.org/2000/svg">
<path d="M1.51996 56.9487C16.4451 58.7509 31.421 60.2231 46.3969 61.3145C52.9711 61.7968 61.1951 63.4213 65.7132 57.3548C69.4445 52.329 71.3229 46.1609 75.0288 41.0844C78.9631 35.7032 83.8874 31.1596 87.5679 25.5754C91.1469 20.1688 93.8883 14.2547 95.7158 8.03587C96.858 4.20306 98.381 -0.619726 103.381 0.0656115C108.179 0.725567 110.057 6.3606 110.032 10.5742C110.006 16.3361 107.697 22.301 105.26 27.4284C104.143 29.789 102.747 31.9973 101.478 34.2564C100.818 35.424 99.6755 36.9978 100.234 38.343C100.716 39.5107 102.062 39.6883 103.255 39.9675C116.022 42.8104 128.942 41.4905 141.684 39.2314C148.791 37.9622 155.822 36.9469 163.031 36.3885C167.524 36.0332 172.017 35.5763 176.51 35.4748C180.165 35.3986 184.556 34.8909 187.145 38.0384C190.369 41.9473 188.414 46.6686 184.404 48.8261C179.632 51.3898 173.692 51.5675 168.412 52.0498C161.788 52.659 154.858 52.6843 148.436 54.5627C142.217 56.3649 136.963 60.2485 131.633 63.8021C129.932 64.9443 128.333 62.2029 130.033 61.0607C134.374 58.167 138.664 55.0449 143.486 52.9635C148.132 50.9837 152.98 50.2476 157.98 49.7653C163.691 49.2069 169.453 48.9277 175.139 48.1408C178.515 47.6839 189.353 45.4756 184.632 39.9929C182.348 37.3531 175.393 38.6222 172.169 38.8507C167.219 39.1806 162.27 39.5868 157.32 39.9929C150.974 40.526 144.654 41.9728 138.384 43.0642C126.607 45.1202 114.804 45.3741 103.026 43.1658C99.9802 42.582 96.4265 41.4398 96.7565 37.7085C96.9342 35.6525 98.1272 33.6979 99.1679 31.9465C100.691 29.3575 102.163 26.7938 103.356 24.0271C105.539 18.9251 108.915 10.6503 105.666 5.37063C104.498 3.49229 102.366 2.24858 100.589 4.22844C99.8025 5.09146 99.5232 6.41131 99.1933 7.50278C98.3556 10.371 97.4419 13.1886 96.2742 15.9553C94.0152 21.3619 91.0707 26.4638 87.5171 31.1089C83.6589 36.1347 78.9123 40.4498 75.6379 45.9071C72.4905 51.2121 70.4853 58.2178 65.4595 62.1521C60.789 65.8073 54.3925 65.0712 48.859 64.6651C33.0201 63.5482 17.2319 62.0252 1.46915 60.1215C-0.485336 59.8677 -0.510681 56.6948 1.51996 56.9487Z" fill="#EFEFEF"/>
<path d="M135.364 57.7348C142.014 58.0902 149.477 59.537 151.279 67.0504C151.99 69.9948 151.71 73.3453 149.604 75.6551C147.421 78.0665 143.943 78.828 140.872 79.361C132.927 80.6809 124.424 81.214 116.403 80.3764C114.55 80.1733 112.697 79.9194 110.869 79.5133C109.372 79.2087 107.62 79.0057 106.783 77.5842C105.209 74.9952 107.341 71.8477 109.549 70.477C113.052 68.2941 117.875 67.5326 121.835 66.4919C126.556 65.2482 131.303 64.1567 136.049 63.0652C138.029 62.6083 138.892 65.6796 136.887 66.1365C129.246 67.888 121.555 69.614 114.093 72C112.748 72.4315 109.6 73.2946 109.549 75.1475C109.499 76.6705 113.382 76.7466 114.499 76.9243C118.306 77.4827 122.19 77.5842 126.023 77.4573C129.78 77.3558 133.536 77.0512 137.267 76.6451C140.39 76.2897 144.882 76.0359 147.218 73.6245C149.654 71.0862 148.461 66.2889 146.228 64.0298C143.435 61.2377 139.095 61.0853 135.415 60.8823C133.333 60.8061 133.333 57.6333 135.364 57.7348Z" fill="#EFEFEF"/>
<path d="M143.994 76.1631C148.563 78.3968 150.441 83.9811 147.928 88.4739C145.06 93.5504 138.511 93.6265 133.384 93.8803C126.937 94.2103 120.413 94.0834 114.093 92.6366C110.311 91.7736 101.605 89.8953 102.518 84.3872C102.975 81.595 105.59 80.1483 108.128 79.5898C112.138 78.7268 116.301 78.2953 120.362 77.6607C122.368 77.3561 123.231 80.402 121.2 80.732C118.129 81.2143 115.057 81.6712 111.986 82.1535C110.387 82.4073 103.534 83.1688 106.199 86.1893C107.798 88.0169 111.555 88.7276 113.814 89.286C116.784 90.0475 119.829 90.4791 122.901 90.6822C128.358 91.0375 134.323 91.1644 139.704 90.1491C142.42 89.6414 145.009 88.3469 145.745 85.4533C146.431 82.6612 144.882 80.1228 142.395 78.9045C140.567 78.0161 142.166 75.2747 143.994 76.1631Z" fill="#EFEFEF"/>
<path d="M133.536 90.9372C137.344 92.1048 140.898 95.1254 140.39 99.4913C139.857 104.187 135.034 105.177 131.125 105.634C126.632 106.167 121.987 105.685 117.698 104.314C114.093 103.146 109.118 101.268 107.392 97.5875C105.235 93.0186 109.93 90.3534 113.712 89.5919C115.718 89.1857 116.555 92.2317 114.55 92.6632C113.205 92.9425 111.327 93.2471 110.438 94.4147C109.296 95.8615 110.996 97.4352 112.113 98.2221C115.337 100.532 119.5 101.826 123.383 102.41C127.115 102.969 131.582 102.994 135.161 101.623C136.963 100.938 137.725 99.2628 137.039 97.4352C136.354 95.5823 134.476 94.5669 132.699 94.0339C130.744 93.3993 131.582 90.328 133.536 90.9372Z" fill="#EFEFEF"/>
<path d="M118.84 104.719C108.357 109.415 96.6804 110.633 85.4612 108.146C83.4559 107.714 84.319 104.643 86.2989 105.074C96.6297 107.359 107.57 106.293 117.215 101.978C119.094 101.14 120.693 103.881 118.84 104.719Z" fill="#EFEFEF"/>
<path d="M70.46 106.013C47.2855 103.78 23.9585 106.546 1.95157 114.187C0.0224762 114.847 -0.815132 111.801 1.11397 111.115C23.3494 103.399 47.0316 100.556 70.46 102.815C72.4653 103.044 72.4907 106.216 70.46 106.013Z" fill="#EFEFEF"/>
<path d="M78.3793 74.4376C79.7754 74.6153 81.1968 73.7015 82.339 73.0162C83.4559 72.3308 84.5219 71.5694 85.5372 70.7317C87.4917 69.0819 89.2685 67.2035 90.7154 65.0967C93.6344 60.8832 95.4873 55.9589 95.8681 50.8316C96.0204 48.8009 99.1933 48.8009 99.041 50.8316C98.5841 56.8981 96.4265 62.7362 92.7968 67.6097C90.9692 70.0465 88.8624 72.2039 86.4257 74.0569C83.862 76.0114 80.9176 77.9405 77.5416 77.509C76.6786 77.3821 76.2471 76.316 76.4248 75.5545C76.6786 74.6153 77.5417 74.3107 78.3793 74.4376Z" fill="#EFEFEF"/>
</svg>
